<?xml version="1.0" encoding="UTF-8"?>
<!-- Created with Inkscape (http://www.inkscape.org/) -->
<svg width="103.39" height="101.33" version="1.1" viewBox="0 0 103.3874 101.32918" xml:space="preserve" xmlns="http://www.w3.org/2000/svg" xmlns:cc="http://creativecommons.org/ns#" xmlns:dc="http://purl.org/dc/elements/1.1/" xmlns:rdf="http://www.w3.org/1999/02/22-rdf-syntax-ns#"><metadata><rdf:RDF><cc:Work rdf:about=""><dc:format>image/svg+xml</dc:format><dc:type rdf:resource="http://purl.org/dc/dcmitype/StillImage"/><dc:title/></cc:Work></rdf:RDF></metadata><g transform="matrix(1.3333 0 0 -1.3333 -171.76 602.73)"><g transform="scale(.1)"><path d="m1675.9 4445.4c-172.65 0-312.67-140-312.67-312.71 0-138.14 89.59-255.35 213.85-296.72 15.645-2.8603 21.347 6.7956 21.347 15.088 0 7.4291-0.2688 27.086-0.4224 53.175-86.98-18.89-105.33 41.925-105.33 41.925-14.225 36.128-34.727 45.746-34.727 45.746-28.392 19.388 2.1501 19.005 2.1501 19.005 31.386-2.2076 47.895-32.231 47.895-32.231 27.893-47.78 73.197-33.978 91.011-25.973 2.841 20.195 10.923 33.978 19.849 41.791-69.434 7.909-142.44 34.727-142.44 154.55 0 34.151 12.19 62.043 32.193 83.908-3.225 7.909-13.956 39.698 3.0715 82.756 0 0 26.242 8.4081 85.982-32.039 24.936 6.9299 51.696 10.385 78.284 10.52 26.568-0.1344 53.309-3.5898 78.284-10.52 59.701 40.447 85.905 32.039 85.905 32.039 17.066-43.058 6.3349-74.848 3.1291-82.756 20.041-21.865 32.135-49.758 32.135-83.908 0-120.13-73.12-146.57-142.76-154.3 11.211-9.6559 21.212-28.737 21.212-57.916 0-41.791-0.3839-75.519-0.3839-85.77 0-8.3697 5.6438-18.102 21.5-15.05 124.16 41.446 213.68 158.56 213.68 296.68 0 172.71-140.02 312.71-312.73 312.71" fill="#fff" fill-rule="evenodd"/></g></g></svg>
